NotoSansHanifiRohingya-SemiBold.ufo
<glyph name="guillemotleft" format="2">
	<unicode hex="00AB"/>
	<advance width="574"/>
	<outline>
		<contour>
			<point x="216" y="50" type="line"/>
			<point x="306" y="100" type="line"/>
			<point x="169" y="270" type="line"/>
			<point x="306" y="441" type="line"/>
			<point x="216" y="490" type="line"/>
			<point x="40" y="276" type="line"/>
			<point x="40" y="263" type="line"/>
		</contour>
		<contour>
			<point x="445" y="50" type="line"/>
			<point x="535" y="100" type="line"/>
			<point x="397" y="270" type="line"/>
			<point x="535" y="441" type="line"/>
			<point x="445" y="490" type="line"/>
			<point x="268" y="276" type="line"/>
			<point x="268" y="263" type="line"/>
		</contour>
	</outline>
</glyph>
<glyph name="guillemotright" format="2">
	<unicode hex="00BB"/>
	<advance width="574"/>
	<outline>
		<contour>
			<point x="128" y="50" type="line"/>
			<point x="305" y="263" type="line"/>
			<point x="305" y="276" type="line"/>
			<point x="128" y="490" type="line"/>
			<point x="39" y="441" type="line"/>
			<point x="176" y="270" type="line"/>
			<point x="39" y="100" type="line"/>
		</contour>
		<contour>
			<point x="358" y="50" type="line"/>
			<point x="534" y="263" type="line"/>
			<point x="534" y="276" type="line"/>
			<point x="358" y="490" type="line"/>
			<point x="268" y="441" type="line"/>
			<point x="405" y="270" type="line"/>
			<point x="268" y="100" type="line"/>
		</contour>
	</outline>
</glyph>
<glyph name="comma-ar" format="2">
	<unicode hex="060C"/>
	<advance width="308"/>
	<outline>
		<contour>
			<point x="72" y="0" type="line"/>
			<point x="194" y="0" type="line"/>
			<point x="205" y="77"/>
			<point x="221" y="158"/>
			<point x="243" y="245" type="curve"/>
			<point x="151" y="245" type="line"/>
			<point x="112" y="159"/>
			<point x="83" y="81"/>
			<point x="65" y="11" type="curve"/>
		</contour>
	</outline>
</glyph>
<glyph name="question-ar" format="2">
	<unicode hex="061F"/>
	<advance width="521"/>
	<outline>
		<contour>
			<point x="248" y="223" type="line"/>
			<point x="355" y="223" type="line"/>
			<point x="355" y="256" type="line" smooth="yes"/>
			<point x="355" y="323"/>
			<point x="333" y="365"/>
			<point x="268" y="417" type="curve" smooth="yes"/>
			<point x="202" y="470"/>
			<point x="184" y="493"/>
			<point x="184" y="543" type="curve" smooth="yes"/>
			<point x="184" y="592"/>
			<point x="219" y="620"/>
			<point x="277" y="620" type="curve" smooth="yes"/>
			<point x="326" y="620"/>
			<point x="374" y="604"/>
			<point x="433" y="574" type="curve"/>
			<point x="476" y="668" type="line"/>
			<point x="415" y="702"/>
			<point x="343" y="724"/>
			<point x="274" y="724" type="curve" smooth="yes"/>
			<point x="143" y="724"/>
			<point x="65" y="657"/>
			<point x="65" y="548" type="curve" smooth="yes"/>
			<point x="65" y="468"/>
			<point x="99" y="425"/>
			<point x="177" y="363" type="curve" smooth="yes"/>
			<point x="236" y="315"/>
			<point x="248" y="294"/>
			<point x="248" y="248" type="curve" smooth="yes"/>
		</contour>
		<contour>
			<point x="296" y="-13" type="curve" smooth="yes"/>
			<point x="344" y="-13"/>
			<point x="373" y="13"/>
			<point x="373" y="64" type="curve" smooth="yes"/>
			<point x="373" y="115"/>
			<point x="344" y="141"/>
			<point x="296" y="141" type="curve" smooth="yes"/>
			<point x="251" y="141"/>
			<point x="221" y="115"/>
			<point x="221" y="64" type="curve" smooth="yes"/>
			<point x="221" y="13"/>
			<point x="250" y="-13"/>
		</contour>
	</outline>
</glyph>
<glyph name="kashida-ar" format="2">
	<unicode hex="0640"/>
	<advance width="250"/>
	<outline>
		<contour>
			<point x="-44" y="22" type="line"/>
			<point x="-24" y="10"/>
			<point x="20" y="0"/>
			<point x="47" y="0" type="curve" smooth="yes"/>
			<point x="303" y="0" type="line"/>
			<point x="303" y="104" type="line"/>
			<point x="-44" y="104" type="line"/>
		</contour>
	</outline>
</glyph>
<glyph name="zero-ar" format="2">
	<unicode hex="0660"/>
	<advance width="308"/>
	<outline>
		<contour>
			<point x="154" y="245" type="curve" smooth="yes"/>
			<point x="202" y="245"/>
			<point x="233" y="276"/>
			<point x="233" y="329" type="curve" smooth="yes"/>
			<point x="233" y="382"/>
			<point x="202" y="414"/>
			<point x="154" y="414" type="curve" smooth="yes"/>
			<point x="104" y="414"/>
			<point x="75" y="383"/>
			<point x="75" y="329" type="curve" smooth="yes"/>
			<point x="75" y="275"/>
			<point x="104" y="245"/>
		</contour>
	</outline>
</glyph>
<glyph name="fullstop-fa.urdu" format="2">
	<unicode hex="06D4"/>
	<advance width="282"/>
	<outline>
		<contour>
			<point x="141" y="-10" type="curve" smooth="yes"/>
			<point x="187" y="-10"/>
			<point x="217" y="17"/>
			<point x="217" y="67" type="curve" smooth="yes"/>
			<point x="217" y="119"/>
			<point x="188" y="144"/>
			<point x="141" y="144" type="curve" smooth="yes"/>
			<point x="94" y="144"/>
			<point x="65" y="118"/>
			<point x="65" y="67" type="curve" smooth="yes"/>
			<point x="65" y="16"/>
			<point x="94" y="-10"/>
		</contour>
	</outline>
</glyph>
<glyph name="ma-rohg" format="2">
	<unicode hex="10D14"/>
	<advance width="760"/>
	<outline>
		<contour>
			<point x="284" y="0" type="curve" smooth="yes"/>
			<point x="356" y="0"/>
			<point x="403" y="26"/>
			<point x="445" y="83" type="curve"/>
			<point x="474" y="175" type="line" smooth="yes"/>
			<point x="497" y="251"/>
			<point x="516" y="277"/>
			<point x="551" y="277" type="curve" smooth="yes"/>
			<point x="591" y="277"/>
			<point x="614" y="245"/>
			<point x="614" y="191" type="curve" smooth="yes"/>
			<point x="614" y="131"/>
			<point x="590" y="101"/>
			<point x="544" y="101" type="curve" smooth="yes"/>
			<point x="502" y="101"/>
			<point x="467" y="123"/>
			<point x="444" y="163" type="curve"/>
			<point x="395" y="66" type="line"/>
			<point x="449" y="18"/>
			<point x="492" y="0"/>
			<point x="553" y="0" type="curve" smooth="yes"/>
			<point x="667" y="0"/>
			<point x="730" y="67"/>
			<point x="730" y="189" type="curve" smooth="yes"/>
			<point x="730" y="305"/>
			<point x="660" y="380"/>
			<point x="551" y="380" type="curve" smooth="yes"/>
			<point x="461" y="380"/>
			<point x="407" y="331"/>
			<point x="372" y="217" type="curve" smooth="yes"/>
			<point x="364" y="190" type="line" smooth="yes"/>
			<point x="346" y="132"/>
			<point x="332" y="104"/>
			<point x="294" y="104" type="curve" smooth="yes"/>
			<point x="259" y="104"/>
			<point x="243" y="130"/>
			<point x="243" y="177" type="curve" smooth="yes"/>
			<point x="243" y="447" type="line"/>
			<point x="234" y="457" type="line"/>
			<point x="234" y="567" type="line" smooth="yes"/>
			<point x="234" y="605"/>
			<point x="254" y="629"/>
			<point x="285" y="629" type="curve" smooth="yes"/>
			<point x="314" y="629"/>
			<point x="331" y="607"/>
			<point x="331" y="577" type="curve" smooth="yes"/>
			<point x="331" y="541"/>
			<point x="306" y="519"/>
			<point x="264" y="519" type="curve" smooth="yes"/>
			<point x="176" y="519" type="line"/>
			<point x="166" y="528" type="line"/>
			<point x="10" y="528" type="line"/>
			<point x="10" y="426" type="line"/>
			<point x="266" y="426" type="line" smooth="yes"/>
			<point x="371" y="426"/>
			<point x="443" y="487"/>
			<point x="443" y="577" type="curve" smooth="yes"/>
			<point x="443" y="663"/>
			<point x="378" y="724"/>
			<point x="285" y="724" type="curve" smooth="yes"/>
			<point x="187" y="724"/>
			<point x="117" y="656"/>
			<point x="117" y="560" type="curve" smooth="yes"/>
			<point x="117" y="176" type="line" smooth="yes"/>
			<point x="117" y="59"/>
			<point x="172" y="0"/>
		</contour>
	</outline>
	<anchor name="top" x="461" y="714"/>
</glyph>
<glyph name="sakin-rohg" format="2">
	<unicode hex="10D22"/>
	<advance width="401"/>
	<outline>
		<contour>
			<point x="10" y="22" type="line"/>
			<point x="29" y="10"/>
			<point x="75" y="0"/>
			<point x="102" y="0" type="curve" smooth="yes"/>
			<point x="113" y="0" type="line" smooth="yes"/>
			<point x="246" y="0"/>
			<point x="321" y="96"/>
			<point x="321" y="264" type="curve" smooth="yes"/>
			<point x="321" y="335" type="line"/>
			<point x="195" y="335" type="line"/>
			<point x="195" y="267" type="line" smooth="yes"/>
			<point x="195" y="155"/>
			<point x="159" y="104"/>
			<point x="82" y="104" type="curve" smooth="yes"/>
			<point x="10" y="104" type="line"/>
		</contour>
	</outline>
	<anchor name="top" x="258" y="714"/>
</glyph>
<glyph name="harbahay-rohg" format="2">
	<unicode hex="10D24"/>
	<outline>
		<contour>
			<point x="6" y="892" type="curve" smooth="yes"/>
			<point x="72" y="892"/>
			<point x="120" y="934"/>
			<point x="120" y="1003" type="curve" smooth="yes"/>
			<point x="120" y="1085" type="line"/>
			<point x="37" y="1085" type="line"/>
			<point x="37" y="1011" type="line" smooth="yes"/>
			<point x="37" y="984"/>
			<point x="22" y="966"/>
			<point x="-7" y="966" type="curve" smooth="yes"/>
			<point x="-33" y="966"/>
			<point x="-47" y="978"/>
			<point x="-58" y="997" type="curve"/>
			<point x="-81" y="928" type="line"/>
			<point x="-65" y="907"/>
			<point x="-31" y="892"/>
		</contour>
		<contour>
			<point x="-120" y="802" type="line"/>
			<point x="-37" y="802" type="line"/>
			<point x="-37" y="1085" type="line"/>
			<point x="-120" y="1085" type="line"/>
		</contour>
	</outline>
	<anchor name="_top" x="0" y="714"/>
	<anchor name="top" x="0" y="1089"/>
</glyph>
<glyph name="tahala-rohg" format="2">
	<unicode hex="10D25"/>
	<outline>
		<contour>
			<point x="-42" y="791" type="line"/>
			<point x="-9" y="804" type="line" smooth="yes"/>
			<point x="39" y="823"/>
			<point x="65" y="853"/>
			<point x="65" y="889" type="curve" smooth="yes"/>
			<point x="65" y="908"/>
			<point x="59" y="928"/>
			<point x="47" y="947" type="curve" smooth="yes"/>
			<point x="31" y="974" type="line" smooth="yes"/>
			<point x="27" y="980"/>
			<point x="25" y="987"/>
			<point x="25" y="992" type="curve" smooth="yes"/>
			<point x="25" y="1002"/>
			<point x="31" y="1008"/>
			<point x="47" y="1014" type="curve" smooth="yes"/>
			<point x="75" y="1025" type="line"/>
			<point x="43" y="1097" type="line"/>
			<point x="10" y="1084" type="line" smooth="yes"/>
			<point x="-39" y="1065"/>
			<point x="-64" y="1036"/>
			<point x="-64" y="999" type="curve" smooth="yes"/>
			<point x="-64" y="980"/>
			<point x="-58" y="960"/>
			<point x="-46" y="941" type="curve" smooth="yes"/>
			<point x="-30" y="915" type="line" smooth="yes"/>
			<point x="-26" y="908"/>
			<point x="-24" y="902"/>
			<point x="-24" y="897" type="curve" smooth="yes"/>
			<point x="-24" y="887"/>
			<point x="-30" y="881"/>
			<point x="-46" y="874" type="curve" smooth="yes"/>
			<point x="-74" y="863" type="line"/>
		</contour>
	</outline>
	<anchor name="_top" x="0" y="714"/>
	<anchor name="top" x="0" y="1079"/>
</glyph>
<glyph name="tana-rohg" format="2">
	<unicode hex="10D26"/>
	<outline>
		<contour>
			<point x="-145" y="855" type="line"/>
			<point x="-119" y="896"/>
			<point x="-99" y="915"/>
			<point x="-62" y="915" type="curve" smooth="yes"/>
			<point x="-46" y="915"/>
			<point x="-31" y="912"/>
			<point x="-5" y="904" type="curve" smooth="yes"/>
			<point x="22" y="895"/>
			<point x="40" y="892"/>
			<point x="66" y="892" type="curve" smooth="yes"/>
			<point x="136" y="892"/>
			<point x="185" y="937"/>
			<point x="216" y="1021" type="curve"/>
			<point x="138" y="1051" type="line"/>
			<point x="116" y="1000"/>
			<point x="100" y="978"/>
			<point x="63" y="978" type="curve" smooth="yes"/>
			<point x="42" y="978"/>
			<point x="28" y="981"/>
			<point x="1" y="989" type="curve" smooth="yes"/>
			<point x="-26" y="997"/>
			<point x="-45" y="1001"/>
			<point x="-68" y="1001" type="curve" smooth="yes"/>
			<point x="-131" y="1001"/>
			<point x="-179" y="964"/>
			<point x="-216" y="902" type="curve"/>
		</contour>
	</outline>
	<anchor name="_top" x="0" y="714"/>
	<anchor name="top" x="0" y="1003"/>
</glyph>
<glyph name="tassi-rohg" format="2">
	<unicode hex="10D27"/>
	<outline>
		<contour>
			<point x="-85" y="824" type="curve" smooth="yes"/>
			<point x="-36" y="824"/>
			<point x="-3" y="848"/>
			<point x="20" y="905" type="curve"/>
			<point x="-16" y="905" type="line"/>
			<point x="4" y="849"/>
			<point x="37" y="824"/>
			<point x="86" y="824" type="curve" smooth="yes"/>
			<point x="137" y="824"/>
			<point x="190" y="859"/>
			<point x="190" y="933" type="curve" smooth="yes"/>
			<point x="190" y="1045" type="line"/>
			<point x="107" y="1045" type="line"/>
			<point x="107" y="943" type="line" smooth="yes"/>
			<point x="107" y="910"/>
			<point x="94" y="898"/>
			<point x="73" y="898" type="curve" smooth="yes"/>
			<point x="52" y="898"/>
			<point x="39" y="910"/>
			<point x="39" y="943" type="curve" smooth="yes"/>
			<point x="39" y="1005" type="line"/>
			<point x="-38" y="1005" type="line"/>
			<point x="-38" y="943" type="line" smooth="yes"/>
			<point x="-38" y="910"/>
			<point x="-51" y="898"/>
			<point x="-72" y="898" type="curve" smooth="yes"/>
			<point x="-93" y="898"/>
			<point x="-106" y="910"/>
			<point x="-106" y="943" type="curve" smooth="yes"/>
			<point x="-106" y="1045" type="line"/>
			<point x="-189" y="1045" type="line"/>
			<point x="-189" y="933" type="line" smooth="yes"/>
			<point x="-189" y="859"/>
			<point x="-136" y="824"/>
		</contour>
	</outline>
	<anchor name="_top" x="0" y="714"/>
	<anchor name="top" x="0" y="1019"/>
</glyph>
<glyph name="zero-rohg" format="2">
	<unicode hex="10D30"/>
	<advance width="595"/>
	<outline>
		<contour>
			<point x="298" y="-10" type="curve" smooth="yes"/>
			<point x="454" y="-10"/>
			<point x="530" y="111"/>
			<point x="530" y="357" type="curve" smooth="yes"/>
			<point x="530" y="603"/>
			<point x="454" y="724"/>
			<point x="298" y="724" type="curve" smooth="yes"/>
			<point x="142" y="724"/>
			<point x="65" y="603"/>
			<point x="65" y="357" type="curve" smooth="yes"/>
			<point x="65" y="111"/>
			<point x="142" y="-10"/>
		</contour>
		<contour>
			<point x="298" y="95" type="curve" smooth="yes"/>
			<point x="222" y="95"/>
			<point x="191" y="171"/>
			<point x="191" y="357" type="curve" smooth="yes"/>
			<point x="191" y="543"/>
			<point x="222" y="619"/>
			<point x="298" y="619" type="curve" smooth="yes"/>
			<point x="373" y="619"/>
			<point x="404" y="543"/>
			<point x="404" y="357" type="curve" smooth="yes"/>
			<point x="404" y="171"/>
			<point x="373" y="95"/>
		</contour>
	</outline>
</glyph>
<glyph name="two-rohg" format="2">
	<unicode hex="10D32"/>
	<advance width="555"/>
	<outline>
		<contour>
			<point x="384" y="-14" type="line"/>
			<point x="455" y="159"/>
			<point x="490" y="301"/>
			<point x="490" y="416" type="curve" smooth="yes"/>
			<point x="490" y="614"/>
			<point x="401" y="724"/>
			<point x="241" y="724" type="curve" smooth="yes"/>
			<point x="114" y="724"/>
			<point x="20" y="640"/>
			<point x="20" y="528" type="curve" smooth="yes"/>
			<point x="20" y="417"/>
			<point x="106" y="342"/>
			<point x="233" y="342" type="curve" smooth="yes"/>
			<point x="274" y="342" type="line"/>
			<point x="274" y="446" type="line"/>
			<point x="241" y="446" type="line" smooth="yes"/>
			<point x="182" y="446"/>
			<point x="143" y="479"/>
			<point x="143" y="529" type="curve" smooth="yes"/>
			<point x="143" y="582"/>
			<point x="182" y="620"/>
			<point x="238" y="620" type="curve" smooth="yes"/>
			<point x="321" y="620"/>
			<point x="364" y="549"/>
			<point x="364" y="414" type="curve" smooth="yes"/>
			<point x="364" y="318"/>
			<point x="333" y="202"/>
			<point x="260" y="24" type="curve"/>
		</contour>
	</outline>
</glyph>
<glyph name="three-rohg" format="2">
	<unicode hex="10D33"/>
	<advance width="640"/>
	<outline>
		<contour>
			<point x="308" y="-10" type="curve" smooth="yes"/>
			<point x="476" y="-10"/>
			<point x="585" y="91"/>
			<point x="585" y="247" type="curve" smooth="yes"/>
			<point x="585" y="379"/>
			<point x="512" y="476"/>
			<point x="329" y="582" type="curve" smooth="yes"/>
			<point x="293" y="604" type="line"/>
			<point x="293" y="610" type="line"/>
			<point x="561" y="610" type="line"/>
			<point x="561" y="714" type="line"/>
			<point x="76" y="714" type="line"/>
			<point x="76" y="628" type="line"/>
			<point x="266" y="508" type="line" smooth="yes"/>
			<point x="407" y="418"/>
			<point x="459" y="348"/>
			<point x="459" y="251" type="curve" smooth="yes"/>
			<point x="459" y="152"/>
			<point x="404" y="95"/>
			<point x="305" y="95" type="curve" smooth="yes"/>
			<point x="224" y="95"/>
			<point x="171" y="135"/>
			<point x="171" y="193" type="curve" smooth="yes"/>
			<point x="171" y="244"/>
			<point x="210" y="275"/>
			<point x="273" y="275" type="curve" smooth="yes"/>
			<point x="310" y="275" type="line"/>
			<point x="310" y="379" type="line"/>
			<point x="273" y="379" type="line" smooth="yes"/>
			<point x="137" y="379"/>
			<point x="45" y="305"/>
			<point x="45" y="195" type="curve" smooth="yes"/>
			<point x="45" y="74"/>
			<point x="153" y="-10"/>
		</contour>
	</outline>
</glyph>
<glyph name="four-rohg" format="2">
	<unicode hex="10D34"/>
	<advance width="757"/>
	<outline>
		<contour>
			<point x="256" y="-10" type="curve" smooth="yes"/>
			<point x="368" y="-10"/>
			<point x="432" y="58"/>
			<point x="432" y="179" type="curve" smooth="yes"/>
			<point x="432" y="216" type="line"/>
			<point x="315" y="216" type="line"/>
			<point x="315" y="179" type="line" smooth="yes"/>
			<point x="315" y="119"/>
			<point x="296" y="92"/>
			<point x="257" y="92" type="curve" smooth="yes"/>
			<point x="210" y="92"/>
			<point x="191" y="140"/>
			<point x="191" y="270" type="curve" smooth="yes"/>
			<point x="191" y="331" type="line" smooth="yes"/>
			<point x="191" y="490"/>
			<point x="229" y="562"/>
			<point x="312" y="562" type="curve" smooth="yes"/>
			<point x="437" y="562"/>
			<point x="531" y="375"/>
			<point x="531" y="127" type="curve" smooth="yes"/>
			<point x="531" y="0" type="line"/>
			<point x="657" y="0" type="line"/>
			<point x="657" y="714" type="line"/>
			<point x="537" y="714" type="line"/>
			<point x="537" y="497" type="line"/>
			<point x="530" y="497" type="line"/>
			<point x="483" y="605"/>
			<point x="400" y="666"/>
			<point x="299" y="666" type="curve" smooth="yes"/>
			<point x="144" y="666"/>
			<point x="65" y="553"/>
			<point x="65" y="331" type="curve" smooth="yes"/>
			<point x="65" y="268" type="line" smooth="yes"/>
			<point x="65" y="80"/>
			<point x="127" y="-10"/>
		</contour>
	</outline>
</glyph>
<glyph name="five-rohg" format="2">
	<unicode hex="10D35"/>
	<advance width="803"/>
	<outline>
		<contour>
			<point x="630" y="0" type="line"/>
			<point x="630" y="104" type="line"/>
			<point x="475" y="104" type="line"/>
			<point x="518" y="53" type="line"/>
			<point x="518" y="113" type="line" smooth="yes"/>
			<point x="518" y="286"/>
			<point x="536" y="322"/>
			<point x="660" y="403" type="curve" smooth="yes"/>
			<point x="683" y="418" type="line" smooth="yes"/>
			<point x="749" y="460"/>
			<point x="778" y="505"/>
			<point x="778" y="562" type="curve" smooth="yes"/>
			<point x="778" y="638"/>
			<point x="715" y="696"/>
			<point x="634" y="696" type="curve" smooth="yes"/>
			<point x="549" y="696"/>
			<point x="484" y="638"/>
			<point x="484" y="561" type="curve" smooth="yes"/>
			<point x="484" y="493"/>
			<point x="534" y="443"/>
			<point x="611" y="434" type="curve"/>
			<point x="572" y="465" type="line"/>
			<point x="432" y="384"/>
			<point x="392" y="306"/>
			<point x="392" y="113" type="curve" smooth="yes"/>
			<point x="392" y="55" type="line"/>
			<point x="449" y="104" type="line"/>
			<point x="396" y="104" type="line" smooth="yes"/>
			<point x="276" y="104"/>
			<point x="191" y="206"/>
			<point x="191" y="349" type="curve" smooth="yes"/>
			<point x="191" y="480"/>
			<point x="254" y="572"/>
			<point x="395" y="647" type="curve"/>
			<point x="333" y="745" type="line"/>
			<point x="161" y="655"/>
			<point x="65" y="515"/>
			<point x="65" y="351" type="curve" smooth="yes"/>
			<point x="65" y="149"/>
			<point x="204" y="0"/>
			<point x="392" y="0" type="curve" smooth="yes"/>
		</contour>
		<contour>
			<point x="631" y="510" type="curve" smooth="yes"/>
			<point x="604" y="510"/>
			<point x="583" y="530"/>
			<point x="583" y="557" type="curve" smooth="yes"/>
			<point x="583" y="585"/>
			<point x="604" y="606"/>
			<point x="631" y="606" type="curve" smooth="yes"/>
			<point x="657" y="606"/>
			<point x="678" y="584"/>
			<point x="678" y="557" type="curve" smooth="yes"/>
			<point x="678" y="531"/>
			<point x="657" y="510"/>
		</contour>
	</outline>
</glyph>
<glyph name="six-rohg" format="2">
	<unicode hex="10D36"/>
	<advance width="682"/>
	<outline>
		<contour>
			<point x="315" y="-10" type="curve" smooth="yes"/>
			<point x="497" y="-10"/>
			<point x="602" y="111"/>
			<point x="602" y="329" type="curve" smooth="yes"/>
			<point x="602" y="714" type="line"/>
			<point x="121" y="714" type="line"/>
			<point x="121" y="610" type="line"/>
			<point x="476" y="610" type="line"/>
			<point x="476" y="329" type="line" smooth="yes"/>
			<point x="476" y="177"/>
			<point x="418" y="95"/>
			<point x="312" y="95" type="curve" smooth="yes"/>
			<point x="230" y="95"/>
			<point x="176" y="141"/>
			<point x="176" y="209" type="curve" smooth="yes"/>
			<point x="176" y="277"/>
			<point x="227" y="316"/>
			<point x="310" y="316" type="curve" smooth="yes"/>
			<point x="379" y="316" type="line"/>
			<point x="379" y="420" type="line"/>
			<point x="310" y="420" type="line" smooth="yes"/>
			<point x="152" y="420"/>
			<point x="50" y="336"/>
			<point x="50" y="208" type="curve" smooth="yes"/>
			<point x="50" y="79"/>
			<point x="158" y="-10"/>
		</contour>
	</outline>
</glyph>
<glyph name="seven-rohg" format="2">
	<unicode hex="10D37"/>
	<advance width="697"/>
	<outline>
		<contour>
			<point x="147" y="-10" type="curve" smooth="yes"/>
			<point x="212" y="-10"/>
			<point x="255" y="16"/>
			<point x="300" y="83" type="curve" smooth="yes"/>
			<point x="664" y="623" type="line"/>
			<point x="664" y="714" type="line"/>
			<point x="147" y="714" type="line"/>
			<point x="147" y="610" type="line"/>
			<point x="599" y="610" type="line"/>
			<point x="553" y="655" type="line"/>
			<point x="237" y="185" type="line"/>
			<point x="244" y="89" type="line"/>
			<point x="310" y="40" type="line" smooth="yes"/>
			<point x="352" y="8"/>
			<point x="411" y="-10"/>
			<point x="474" y="-10" type="curve" smooth="yes"/>
			<point x="555" y="-10"/>
			<point x="623" y="19"/>
			<point x="672" y="74" type="curve"/>
			<point x="610" y="153" type="line"/>
			<point x="568" y="114"/>
			<point x="520" y="94"/>
			<point x="470" y="94" type="curve" smooth="yes"/>
			<point x="434" y="94"/>
			<point x="400" y="104"/>
			<point x="370" y="125" type="curve" smooth="yes"/>
			<point x="307" y="169" type="line"/>
			<point x="274" y="175" type="line"/>
			<point x="263" y="232"/>
			<point x="210" y="267"/>
			<point x="147" y="267" type="curve" smooth="yes"/>
			<point x="64" y="267"/>
			<point x="0" y="206"/>
			<point x="0" y="125" type="curve" smooth="yes"/>
			<point x="0" y="48"/>
			<point x="63" y="-10"/>
		</contour>
		<contour>
			<point x="151" y="80" type="curve" smooth="yes"/>
			<point x="124" y="80"/>
			<point x="104" y="100"/>
			<point x="104" y="127" type="curve" smooth="yes"/>
			<point x="104" y="155"/>
			<point x="124" y="175"/>
			<point x="151" y="175" type="curve" smooth="yes"/>
			<point x="178" y="175"/>
			<point x="199" y="154"/>
			<point x="199" y="127" type="curve" smooth="yes"/>
			<point x="199" y="100"/>
			<point x="178" y="80"/>
		</contour>
	</outline>
</glyph>
<glyph name="eight-rohg" format="2">
	<unicode hex="10D38"/>
	<advance width="757"/>
	<outline>
		<contour>
			<point x="100" y="0" type="line"/>
			<point x="226" y="0" type="line"/>
			<point x="226" y="127" type="line" smooth="yes"/>
			<point x="226" y="375"/>
			<point x="320" y="562"/>
			<point x="445" y="562" type="curve" smooth="yes"/>
			<point x="528" y="562"/>
			<point x="566" y="490"/>
			<point x="566" y="331" type="curve" smooth="yes"/>
			<point x="566" y="270" type="line" smooth="yes"/>
			<point x="566" y="140"/>
			<point x="548" y="92"/>
			<point x="500" y="92" type="curve" smooth="yes"/>
			<point x="461" y="92"/>
			<point x="443" y="119"/>
			<point x="443" y="179" type="curve" smooth="yes"/>
			<point x="443" y="216" type="line"/>
			<point x="326" y="216" type="line"/>
			<point x="326" y="179" type="line" smooth="yes"/>
			<point x="326" y="58"/>
			<point x="389" y="-10"/>
			<point x="501" y="-10" type="curve" smooth="yes"/>
			<point x="630" y="-10"/>
			<point x="692" y="80"/>
			<point x="692" y="268" type="curve" smooth="yes"/>
			<point x="692" y="331" type="line" smooth="yes"/>
			<point x="692" y="553"/>
			<point x="613" y="666"/>
			<point x="458" y="666" type="curve" smooth="yes"/>
			<point x="357" y="666"/>
			<point x="274" y="605"/>
			<point x="227" y="497" type="curve"/>
			<point x="220" y="497" type="line"/>
			<point x="220" y="714" type="line"/>
			<point x="100" y="714" type="line"/>
		</contour>
	</outline>
</glyph>
<glyph name="nine-rohg" format="2">
	<unicode hex="10D39"/>
	<advance width="617"/>
	<outline>
		<contour>
			<point x="287" y="0" type="line"/>
			<point x="400" y="0" type="line"/>
			<point x="607" y="219" type="line"/>
			<point x="523" y="291" type="line"/>
			<point x="454" y="213" type="line" smooth="yes"/>
			<point x="431" y="186"/>
			<point x="416" y="169"/>
			<point x="410" y="160" type="curve"/>
			<point x="412" y="173"/>
			<point x="413" y="200"/>
			<point x="413" y="234" type="curve" smooth="yes"/>
			<point x="413" y="535" type="line" smooth="yes"/>
			<point x="413" y="649"/>
			<point x="341" y="724"/>
			<point x="231" y="724" type="curve" smooth="yes"/>
			<point x="108" y="724"/>
			<point x="35" y="644"/>
			<point x="35" y="507" type="curve" smooth="yes"/>
			<point x="35" y="460" type="line" smooth="yes"/>
			<point x="35" y="340"/>
			<point x="103" y="263"/>
			<point x="210" y="263" type="curve" smooth="yes"/>
			<point x="250" y="263"/>
			<point x="285" y="278"/>
			<point x="304" y="305" type="curve"/>
			<point x="287" y="306" type="line"/>
		</contour>
		<contour>
			<point x="224" y="361" type="curve" smooth="yes"/>
			<point x="179" y="361"/>
			<point x="154" y="396"/>
			<point x="154" y="460" type="curve" smooth="yes"/>
			<point x="154" y="507" type="line" smooth="yes"/>
			<point x="154" y="583"/>
			<point x="178" y="621"/>
			<point x="227" y="621" type="curve" smooth="yes"/>
			<point x="268" y="621"/>
			<point x="294" y="587"/>
			<point x="294" y="534" type="curve" smooth="yes"/>
			<point x="294" y="447" type="line" smooth="yes"/>
			<point x="294" y="394"/>
			<point x="268" y="361"/>
		</contour>
	</outline>
</glyph>
<glyph name="a-rohg.init" format="2">
	<advance width="531"/>
	<outline>
		<contour>
			<point x="-35" y="22" type="line"/>
			<point x="-16" y="10"/>
			<point x="29" y="0"/>
			<point x="57" y="0" type="curve" smooth="yes"/>
			<point x="141" y="0" type="line" smooth="yes"/>
			<point x="342" y="0"/>
			<point x="451" y="98"/>
			<point x="451" y="280" type="curve" smooth="yes"/>
			<point x="451" y="556" type="line" smooth="yes"/>
			<point x="451" y="660"/>
			<point x="389" y="724"/>
			<point x="290" y="724" type="curve" smooth="yes"/>
			<point x="193" y="724"/>
			<point x="130" y="659"/>
			<point x="130" y="559" type="curve" smooth="yes"/>
			<point x="130" y="222" type="line" smooth="yes"/>
			<point x="130" y="160"/>
			<point x="151" y="109"/>
			<point x="190" y="75" type="curve"/>
			<point x="281" y="127" type="line"/>
			<point x="260" y="149"/>
			<point x="249" y="183"/>
			<point x="249" y="222" type="curve" smooth="yes"/>
			<point x="249" y="559" type="line" smooth="yes"/>
			<point x="249" y="601"/>
			<point x="261" y="620"/>
			<point x="287" y="620" type="curve" smooth="yes"/>
			<point x="313" y="620"/>
			<point x="325" y="601"/>
			<point x="325" y="559" type="curve" smooth="yes"/>
			<point x="325" y="283" type="line" smooth="yes"/>
			<point x="325" y="165"/>
			<point x="267" y="104"/>
			<point x="153" y="104" type="curve" smooth="yes"/>
			<point x="-35" y="104" type="line"/>
		</contour>
	</outline>
	<anchor name="top" x="291" y="714"/>
</glyph>
<glyph name="avowel-rohg.init" format="2">
	<advance width="562"/>
	<outline>
		<contour>
			<point x="-35" y="22" type="line"/>
			<point x="-16" y="10"/>
			<point x="30" y="0"/>
			<point x="57" y="0" type="curve" smooth="yes"/>
			<point x="307" y="0" type="line" smooth="yes"/>
			<point x="437" y="0"/>
			<point x="517" y="65"/>
			<point x="517" y="172" type="curve" smooth="yes"/>
			<point x="517" y="268"/>
			<point x="445" y="335"/>
			<point x="343" y="335" type="curve" smooth="yes"/>
			<point x="263" y="335"/>
			<point x="204" y="298"/>
			<point x="124" y="199" type="curve" smooth="yes"/>
			<point x="23" y="74" type="line"/>
			<point x="161" y="74" type="line"/>
			<point x="228" y="156" type="line" smooth="yes"/>
			<point x="274" y="212"/>
			<point x="299" y="231"/>
			<point x="335" y="231" type="curve" smooth="yes"/>
			<point x="370" y="231"/>
			<point x="391" y="209"/>
			<point x="391" y="173" type="curve" smooth="yes"/>
			<point x="391" y="126"/>
			<point x="360" y="104"/>
			<point x="293" y="104" type="curve" smooth="yes"/>
			<point x="-35" y="104" type="line"/>
		</contour>
	</outline>
	<anchor name="top" x="269" y="714"/>
</glyph>
<glyph name="ba-rohg.init" format="2">
	<advance width="426"/>
	<outline>
		<contour>
			<point x="-35" y="22" type="line"/>
			<point x="-16" y="10"/>
			<point x="29" y="0"/>
			<point x="57" y="0" type="curve" smooth="yes"/>
			<point x="88" y="0" type="line" smooth="yes"/>
			<point x="252" y="0"/>
			<point x="346" y="102"/>
			<point x="346" y="280" type="curve" smooth="yes"/>
			<point x="346" y="585" type="line" smooth="yes"/>
			<point x="346" y="669"/>
			<point x="300" y="714"/>
			<point x="217" y="714" type="curve" smooth="yes"/>
			<point x="71" y="714" type="line"/>
			<point x="71" y="610" type="line"/>
			<point x="178" y="610" type="line" smooth="yes"/>
			<point x="205" y="610"/>
			<point x="220" y="595"/>
			<point x="220" y="568" type="curve" smooth="yes"/>
			<point x="220" y="283" type="line" smooth="yes"/>
			<point x="220" y="164"/>
			<point x="169" y="104"/>
			<point x="67" y="104" type="curve" smooth="yes"/>
			<point x="-35" y="104" type="line"/>
		</contour>
	</outline>
	<anchor name="top" x="200" y="714"/>
</glyph>
<glyph name="ca-rohg.init" format="2">
	<advance width="635"/>
	<outline>
		<contour>
			<point x="343" y="0" type="curve" smooth="yes"/>
			<point x="480" y="0"/>
			<point x="555" y="79"/>
			<point x="555" y="221" type="curve" smooth="yes"/>
			<point x="555" y="714" type="line"/>
			<point x="429" y="714" type="line"/>
			<point x="429" y="224" type="line" smooth="yes"/>
			<point x="429" y="144"/>
			<point x="394" y="104"/>
			<point x="323" y="104" type="curve" smooth="yes"/>
			<point x="279" y="104"/>
			<point x="242" y="119"/>
			<point x="191" y="159" type="curve"/>
			<point x="132" y="75" type="line"/>
			<point x="197" y="24"/>
			<point x="264" y="0"/>
		</contour>
		<contour>
			<point x="-35" y="22" type="line"/>
			<point x="-16" y="10"/>
			<point x="29" y="0"/>
			<point x="57" y="0" type="curve" smooth="yes"/>
			<point x="131" y="0"/>
			<point x="186" y="36"/>
			<point x="259" y="129" type="curve" smooth="yes"/>
			<point x="479" y="415" type="line"/>
			<point x="479" y="575" type="line"/>
			<point x="189" y="198" type="line" smooth="yes"/>
			<point x="134" y="126"/>
			<point x="97" y="104"/>
			<point x="36" y="104" type="curve" smooth="yes"/>
			<point x="-35" y="104" type="line"/>
		</contour>
	</outline>
	<anchor name="top" x="368" y="714"/>
</glyph>
<glyph name="da-rohg.init" format="2">
	<advance width="464"/>
	<outline>
		<contour>
			<point x="-35" y="22" type="line"/>
			<point x="-16" y="10"/>
			<point x="30" y="0"/>
			<point x="57" y="0" type="curve" smooth="yes"/>
			<point x="171" y="0" type="line" smooth="yes"/>
			<point x="324" y="0"/>
			<point x="419" y="95"/>
			<point x="419" y="246" type="curve" smooth="yes"/>
			<point x="419" y="377"/>
			<point x="326" y="468"/>
			<point x="193" y="468" type="curve" smooth="yes"/>
			<point x="138" y="468"/>
			<point x="84" y="451"/>
			<point x="40" y="420" type="curve"/>
			<point x="81" y="330" type="line"/>
			<point x="116" y="354"/>
			<point x="148" y="364"/>
			<point x="183" y="364" type="curve" smooth="yes"/>
			<point x="250" y="364"/>
			<point x="293" y="319"/>
			<point x="293" y="246" type="curve" smooth="yes"/>
			<point x="293" y="155"/>
			<point x="242" y="104"/>
			<point x="150" y="104" type="curve" smooth="yes"/>
			<point x="-35" y="104" type="line"/>
		</contour>
	</outline>
	<anchor name="top" x="222" y="714"/>
</glyph>
<glyph name="dda-rohg.init" format="2">
	<advance width="769"/>
	<outline>
		<contour>
			<point x="100" y="56" type="line"/>
			<point x="226" y="56" type="line"/>
			<point x="226" y="714" type="line"/>
			<point x="100" y="714" type="line"/>
		</contour>
		<contour>
			<point x="-35" y="22" type="line"/>
			<point x="-16" y="10"/>
			<point x="29" y="0"/>
			<point x="57" y="0" type="curve" smooth="yes"/>
			<point x="429" y="0" type="line" smooth="yes"/>
			<point x="620" y="0"/>
			<point x="724" y="73"/>
			<point x="724" y="206" type="curve" smooth="yes"/>
			<point x="724" y="318"/>
			<point x="646" y="392"/>
			<point x="529" y="392" type="curve" smooth="yes"/>
			<point x="404" y="392"/>
			<point x="277" y="317"/>
			<point x="198" y="200" type="curve"/>
			<point x="198" y="89" type="line"/>
			<point x="279" y="206"/>
			<point x="406" y="288"/>
			<point x="508" y="288" type="curve" smooth="yes"/>
			<point x="565" y="288"/>
			<point x="598" y="258"/>
			<point x="598" y="206" type="curve" smooth="yes"/>
			<point x="598" y="137"/>
			<point x="538" y="104"/>
			<point x="413" y="104" type="curve" smooth="yes"/>
			<point x="-35" y="104" type="line"/>
		</contour>
		<contour>
			<point x="329" y="86" type="curve"/>
			<point x="447" y="86" type="line"/>
			<point x="457" y="109"/>
			<point x="464" y="134"/>
			<point x="464" y="158" type="curve" smooth="yes"/>
			<point x="464" y="218"/>
			<point x="431" y="269"/>
			<point x="378" y="292" type="curve"/>
			<point x="309" y="229" type="line"/>
			<point x="339" y="215"/>
			<point x="356" y="187"/>
			<point x="356" y="152" type="curve" smooth="yes"/>
			<point x="356" y="127"/>
			<point x="347" y="105"/>
		</contour>
	</outline>
	<anchor name="top" x="413" y="714"/>
</glyph>
<glyph name="ga-rohg.init" format="2">
	<advance width="685"/>
	<outline>
		<contour>
			<point x="-35" y="22" type="line"/>
			<point x="-16" y="10"/>
			<point x="29" y="0"/>
			<point x="57" y="0" type="curve" smooth="yes"/>
			<point x="134" y="0" type="line" smooth="yes"/>
			<point x="200" y="0"/>
			<point x="253" y="20"/>
			<point x="295" y="59" type="curve"/>
			<point x="251" y="60" type="line"/>
			<point x="289" y="22"/>
			<point x="351" y="0"/>
			<point x="420" y="0" type="curve" smooth="yes"/>
			<point x="667" y="0" type="line"/>
			<point x="667" y="104" type="line"/>
			<point x="447" y="104" type="line" smooth="yes"/>
			<point x="337" y="104"/>
			<point x="284" y="164"/>
			<point x="284" y="287" type="curve" smooth="yes"/>
			<point x="284" y="391"/>
			<point x="322" y="448"/>
			<point x="389" y="448" type="curve" smooth="yes"/>
			<point x="433" y="448"/>
			<point x="463" y="422"/>
			<point x="463" y="383" type="curve" smooth="yes"/>
			<point x="463" y="348"/>
			<point x="439" y="325"/>
			<point x="403" y="325" type="curve" smooth="yes"/>
			<point x="379" y="325" type="line"/>
			<point x="379" y="230" type="line"/>
			<point x="410" y="230" type="line" smooth="yes"/>
			<point x="508" y="230"/>
			<point x="575" y="293"/>
			<point x="575" y="383" type="curve" smooth="yes"/>
			<point x="575" y="481"/>
			<point x="498" y="548"/>
			<point x="388" y="548" type="curve" smooth="yes"/>
			<point x="251" y="548"/>
			<point x="158" y="442"/>
			<point x="158" y="284" type="curve" smooth="yes"/>
			<point x="158" y="200"/>
			<point x="177" y="141"/>
			<point x="215" y="99" type="curve"/>
			<point x="214" y="134" type="line"/>
			<point x="186" y="114"/>
			<point x="153" y="104"/>
			<point x="110" y="104" type="curve" smooth="yes"/>
			<point x="-35" y="104" type="line"/>
		</contour>
	</outline>
	<anchor name="top" x="367" y="714"/>
</glyph>
<glyph name="ha-rohg.init" format="2">
	<advance width="737"/>
	<outline>
		<contour>
			<point x="-35" y="22" type="line"/>
			<point x="-16" y="10"/>
			<point x="29" y="0"/>
			<point x="57" y="0" type="curve" smooth="yes"/>
			<point x="86" y="0" type="line" smooth="yes"/>
			<point x="186" y="0"/>
			<point x="264" y="30"/>
			<point x="303" y="84" type="curve"/>
			<point x="371" y="121"/>
			<point x="410" y="177"/>
			<point x="410" y="239" type="curve" smooth="yes"/>
			<point x="410" y="333"/>
			<point x="337" y="398"/>
			<point x="234" y="398" type="curve" smooth="yes"/>
			<point x="128" y="398"/>
			<point x="53" y="331"/>
			<point x="53" y="238" type="curve" smooth="yes"/>
			<point x="53" y="175"/>
			<point x="87" y="126"/>
			<point x="149" y="98" type="curve"/>
			<point x="150" y="114" type="line"/>
			<point x="130" y="106"/>
			<point x="117" y="104"/>
			<point x="84" y="104" type="curve" smooth="yes"/>
			<point x="-35" y="104" type="line"/>
		</contour>
		<contour>
			<point x="230" y="154" type="curve" smooth="yes"/>
			<point x="188" y="154"/>
			<point x="156" y="187"/>
			<point x="156" y="230" type="curve" smooth="yes"/>
			<point x="156" y="273"/>
			<point x="187" y="305"/>
			<point x="230" y="305" type="curve" smooth="yes"/>
			<point x="272" y="305"/>
			<point x="302" y="273"/>
			<point x="302" y="230" type="curve" smooth="yes"/>
			<point x="302" y="187"/>
			<point x="271" y="154"/>
		</contour>
		<contour>
			<point x="445" y="0" type="curve" smooth="yes"/>
			<point x="597" y="0"/>
			<point x="692" y="94"/>
			<point x="692" y="246" type="curve" smooth="yes"/>
			<point x="692" y="287" type="line" smooth="yes"/>
			<point x="692" y="439"/>
			<point x="604" y="538"/>
			<point x="468" y="538" type="curve" smooth="yes"/>
			<point x="362" y="538"/>
			<point x="280" y="473"/>
			<point x="238" y="358" type="curve"/>
			<point x="347" y="313" type="line"/>
			<point x="361" y="390"/>
			<point x="402" y="434"/>
			<point x="461" y="434" type="curve" smooth="yes"/>
			<point x="523" y="434"/>
			<point x="565" y="376"/>
			<point x="565" y="287" type="curve" smooth="yes"/>
			<point x="565" y="246" type="line" smooth="yes"/>
			<point x="565" y="155"/>
			<point x="513" y="104"/>
			<point x="422" y="104" type="curve" smooth="yes"/>
			<point x="373" y="104"/>
			<point x="343" y="110"/>
			<point x="280" y="134" type="curve"/>
			<point x="220" y="57" type="line"/>
			<point x="279" y="26"/>
			<point x="381" y="0"/>
		</contour>
	</outline>
	<anchor name="top" x="411" y="714"/>
</glyph>
<glyph name="ja-rohg.init" format="2">
	<advance width="635"/>
	<outline>
		<contour>
			<point x="343" y="0" type="curve" smooth="yes"/>
			<point x="480" y="0"/>
			<point x="555" y="79"/>
			<point x="555" y="221" type="curve" smooth="yes"/>
			<point x="555" y="546" type="line" smooth="yes"/>
			<point x="555" y="663"/>
			<point x="497" y="724"/>
			<point x="385" y="724" type="curve" smooth="yes"/>
			<point x="280" y="724"/>
			<point x="220" y="658"/>
			<point x="220" y="542" type="curve" smooth="yes"/>
			<point x="220" y="519" type="line"/>
			<point x="339" y="519" type="line"/>
			<point x="339" y="541" type="line" smooth="yes"/>
			<point x="339" y="600"/>
			<point x="351" y="622"/>
			<point x="382" y="622" type="curve" smooth="yes"/>
			<point x="414" y="622"/>
			<point x="429" y="599"/>
			<point x="429" y="546" type="curve" smooth="yes"/>
			<point x="429" y="224" type="line" smooth="yes"/>
			<point x="429" y="144"/>
			<point x="394" y="104"/>
			<point x="323" y="104" type="curve" smooth="yes"/>
			<point x="279" y="104"/>
			<point x="242" y="119"/>
			<point x="191" y="159" type="curve"/>
			<point x="132" y="75" type="line"/>
			<point x="197" y="24"/>
			<point x="264" y="0"/>
		</contour>
		<contour>
			<point x="-35" y="22" type="line"/>
			<point x="-16" y="10"/>
			<point x="29" y="0"/>
			<point x="57" y="0" type="curve" smooth="yes"/>
			<point x="131" y="0"/>
			<point x="186" y="36"/>
			<point x="259" y="129" type="curve" smooth="yes"/>
			<point x="479" y="415" type="line"/>
			<point x="479" y="575" type="line"/>
			<point x="189" y="198" type="line" smooth="yes"/>
			<point x="133" y="126"/>
			<point x="97" y="104"/>
			<point x="36" y="104" type="curve" smooth="yes"/>
			<point x="-35" y="104" type="line"/>
		</contour>
	</outline>
	<anchor name="top" x="374" y="714"/>
</glyph>
<glyph name="ka-rohg.init" format="2">
	<advance width="788"/>
	<outline>
		<contour>
			<point x="250" y="45" type="line"/>
			<point x="250" y="559" type="line" smooth="yes"/>
			<point x="250" y="601"/>
			<point x="262" y="620"/>
			<point x="288" y="620" type="curve" smooth="yes"/>
			<point x="314" y="620"/>
			<point x="326" y="601"/>
			<point x="326" y="559" type="curve" smooth="yes"/>
			<point x="326" y="238" type="line"/>
			<point x="452" y="309" type="line"/>
			<point x="452" y="556" type="line" smooth="yes"/>
			<point x="452" y="660"/>
			<point x="390" y="724"/>
			<point x="291" y="724" type="curve" smooth="yes"/>
			<point x="194" y="724"/>
			<point x="131" y="659"/>
			<point x="131" y="559" type="curve" smooth="yes"/>
			<point x="131" y="45" type="line"/>
		</contour>
		<contour>
			<point x="-35" y="22" type="line"/>
			<point x="-16" y="10"/>
			<point x="29" y="0"/>
			<point x="57" y="0" type="curve" smooth="yes"/>
			<point x="447" y="0" type="line" smooth="yes"/>
			<point x="638" y="0"/>
			<point x="743" y="73"/>
			<point x="743" y="206" type="curve" smooth="yes"/>
			<point x="743" y="318"/>
			<point x="664" y="392"/>
			<point x="547" y="392" type="curve" smooth="yes"/>
			<point x="411" y="392"/>
			<point x="296" y="294"/>
			<point x="236" y="201" type="curve"/>
			<point x="236" y="89" type="line"/>
			<point x="311" y="206"/>
			<point x="431" y="288"/>
			<point x="526" y="288" type="curve" smooth="yes"/>
			<point x="583" y="288"/>
			<point x="617" y="258"/>
			<point x="617" y="206" type="curve" smooth="yes"/>
			<point x="617" y="137"/>
			<point x="557" y="104"/>
			<point x="431" y="104" type="curve" smooth="yes"/>
			<point x="-35" y="104" type="line"/>
		</contour>
	</outline>
	<anchor name="top" x="294" y="714"/>
</glyph>
<glyph name="kha-rohg.init" format="2">
	<advance width="497"/>
	<outline>
		<contour>
			<point x="-35" y="22" type="line"/>
			<point x="-16" y="10"/>
			<point x="29" y="0"/>
			<point x="57" y="0" type="curve" smooth="yes"/>
			<point x="198" y="0" type="line" smooth="yes"/>
			<point x="356" y="0"/>
			<point x="456" y="100"/>
			<point x="456" y="256" type="curve" smooth="yes"/>
			<point x="456" y="403"/>
			<point x="361" y="497"/>
			<point x="211" y="497" type="curve" smooth="yes"/>
			<point x="167" y="497" type="line"/>
			<point x="209" y="445" type="line"/>
			<point x="234" y="468" type="line"/>
			<point x="371" y="574" type="line"/>
			<point x="487" y="666" type="line"/>
			<point x="418" y="757" type="line"/>
			<point x="91" y="488" type="line"/>
			<point x="91" y="404" type="line"/>
			<point x="164" y="404" type="line" smooth="yes"/>
			<point x="274" y="404"/>
			<point x="330" y="354"/>
			<point x="330" y="256" type="curve" smooth="yes"/>
			<point x="330" y="160"/>
			<point x="274" y="104"/>
			<point x="177" y="104" type="curve" smooth="yes"/>
			<point x="-35" y="104" type="line"/>
		</contour>
	</outline>
	<anchor name="top" x="264" y="714"/>
</glyph>
<glyph name="kinnawa-rohg.init" format="2">
	<advance width="576"/>
	<outline>
		<contour>
			<point x="-35" y="22" type="line"/>
			<point x="-16" y="10"/>
			<point x="29" y="0"/>
			<point x="57" y="0" type="curve" smooth="yes"/>
			<point x="238" y="0" type="line" smooth="yes"/>
			<point x="402" y="0"/>
			<point x="496" y="102"/>
			<point x="496" y="280" type="curve" smooth="yes"/>
			<point x="496" y="575" type="line" smooth="yes"/>
			<point x="496" y="669"/>
			<point x="441" y="724"/>
			<point x="347" y="724" type="curve" smooth="yes"/>
			<point x="324" y="724"/>
			<point x="309" y="722"/>
			<point x="202" y="703" type="curve" smooth="yes"/>
			<point x="100" y="685"/>
			<point x="41" y="629"/>
			<point x="41" y="551" type="curve" smooth="yes"/>
			<point x="41" y="473"/>
			<point x="101" y="417"/>
			<point x="186" y="417" type="curve" smooth="yes"/>
			<point x="270" y="417"/>
			<point x="329" y="472"/>
			<point x="329" y="551" type="curve" smooth="yes"/>
			<point x="329" y="589"/>
			<point x="310" y="620"/>
			<point x="277" y="635" type="curve"/>
			<point x="284" y="609" type="line"/>
			<point x="303" y="614"/>
			<point x="321" y="618"/>
			<point x="331" y="618" type="curve" smooth="yes"/>
			<point x="357" y="618"/>
			<point x="370" y="604"/>
			<point x="370" y="578" type="curve" smooth="yes"/>
			<point x="370" y="283" type="line" smooth="yes"/>
			<point x="370" y="164"/>
			<point x="319" y="104"/>
			<point x="217" y="104" type="curve" smooth="yes"/>
			<point x="-35" y="104" type="line"/>
		</contour>
		<contour>
			<point x="187" y="504" type="curve" smooth="yes"/>
			<point x="160" y="504"/>
			<point x="140" y="524"/>
			<point x="140" y="551" type="curve" smooth="yes"/>
			<point x="140" y="578"/>
			<point x="160" y="599"/>
			<point x="187" y="599" type="curve" smooth="yes"/>
			<point x="214" y="599"/>
			<point x="234" y="578"/>
			<point x="234" y="551" type="curve" smooth="yes"/>
			<point x="234" y="524"/>
			<point x="214" y="504"/>
		</contour>
	</outline>
	<anchor name="top" x="260" y="714"/>
</glyph>
<glyph name="ma-rohg.init" format="2">
	<advance width="530"/>
	<outline>
		<contour>
			<point x="-35" y="22" type="line"/>
			<point x="-16" y="10"/>
			<point x="25" y="0"/>
			<point x="57" y="0" type="curve" smooth="yes"/>
			<point x="125" y="0"/>
			<point x="183" y="31"/>
			<point x="216" y="83" type="curve"/>
			<point x="244" y="175" type="line" smooth="yes"/>
			<point x="268" y="251"/>
			<point x="288" y="277"/>
			<point x="322" y="277" type="curve" smooth="yes"/>
			<point x="361" y="277"/>
			<point x="384" y="245"/>
			<point x="384" y="191" type="curve" smooth="yes"/>
			<point x="384" y="131"/>
			<point x="361" y="101"/>
			<point x="315" y="101" type="curve" smooth="yes"/>
			<point x="273" y="101"/>
			<point x="237" y="123"/>
			<point x="215" y="163" type="curve"/>
			<point x="165" y="66" type="line"/>
			<point x="219" y="18"/>
			<point x="262" y="0"/>
			<point x="324" y="0" type="curve" smooth="yes"/>
			<point x="438" y="0"/>
			<point x="500" y="67"/>
			<point x="500" y="189" type="curve" smooth="yes"/>
			<point x="500" y="305"/>
			<point x="431" y="380"/>
			<point x="322" y="380" type="curve" smooth="yes"/>
			<point x="231" y="380"/>
			<point x="178" y="331"/>
			<point x="142" y="217" type="curve" smooth="yes"/>
			<point x="134" y="190" type="line" smooth="yes"/>
			<point x="111" y="115"/>
			<point x="95" y="104"/>
			<point x="9" y="104" type="curve" smooth="yes"/>
			<point x="-35" y="104" type="line"/>
		</contour>
	</outline>
	<anchor name="top" x="330" y="714"/>
</glyph>
<glyph name="na-rohg.init" format="2">
	<advance width="798"/>
	<outline>
		<contour>
			<point x="349" y="0" type="curve" smooth="yes"/>
			<point x="463" y="0"/>
			<point x="535" y="69"/>
			<point x="535" y="177" type="curve" smooth="yes"/>
			<point x="535" y="288"/>
			<point x="463" y="357"/>
			<point x="348" y="357" type="curve" smooth="yes"/>
			<point x="301" y="357"/>
			<point x="263" y="347"/>
			<point x="204" y="318" type="curve"/>
			<point x="240" y="222" type="line"/>
			<point x="272" y="246"/>
			<point x="299" y="256"/>
			<point x="332" y="256" type="curve" smooth="yes"/>
			<point x="382" y="256"/>
			<point x="411" y="227"/>
			<point x="411" y="178" type="curve" smooth="yes"/>
			<point x="411" y="131"/>
			<point x="383" y="101"/>
			<point x="339" y="101" type="curve" smooth="yes"/>
			<point x="298" y="101"/>
			<point x="264" y="123"/>
			<point x="242" y="163" type="curve"/>
			<point x="192" y="66" type="line"/>
			<point x="246" y="18"/>
			<point x="289" y="0"/>
		</contour>
		<contour>
			<point x="-35" y="22" type="line"/>
			<point x="-16" y="10"/>
			<point x="30" y="0"/>
			<point x="57" y="0" type="curve" smooth="yes"/>
			<point x="69" y="0" type="line" smooth="yes"/>
			<point x="212" y="0"/>
			<point x="287" y="102"/>
			<point x="287" y="280" type="curve" smooth="yes"/>
			<point x="287" y="401" type="line" smooth="yes"/>
			<point x="287" y="504"/>
			<point x="341" y="559"/>
			<point x="440" y="559" type="curve" smooth="yes"/>
			<point x="538" y="559"/>
			<point x="592" y="504"/>
			<point x="592" y="401" type="curve" smooth="yes"/>
			<point x="592" y="0" type="line"/>
			<point x="718" y="0" type="line"/>
			<point x="718" y="410" type="line" smooth="yes"/>
			<point x="718" y="569"/>
			<point x="612" y="666"/>
			<point x="440" y="666" type="curve" smooth="yes"/>
			<point x="268" y="666"/>
			<point x="161" y="569"/>
			<point x="161" y="410" type="curve" smooth="yes"/>
			<point x="161" y="283" type="line" smooth="yes"/>
			<point x="161" y="164"/>
			<point x="127" y="104"/>
			<point x="48" y="104" type="curve" smooth="yes"/>
			<point x="-35" y="104" type="line"/>
		</contour>
	</outline>
	<anchor name="top" x="440" y="714"/>
</glyph>
<glyph name="nga-rohg.init" format="2">
	<advance width="734"/>
	<outline>
		<contour>
			<point x="343" y="0" type="curve" smooth="yes"/>
			<point x="480" y="0"/>
			<point x="555" y="79"/>
			<point x="555" y="221" type="curve" smooth="yes"/>
			<point x="555" y="714" type="line"/>
			<point x="429" y="714" type="line"/>
			<point x="429" y="224" type="line" smooth="yes"/>
			<point x="429" y="144"/>
			<point x="394" y="104"/>
			<point x="323" y="104" type="curve" smooth="yes"/>
			<point x="279" y="104"/>
			<point x="242" y="119"/>
			<point x="191" y="159" type="curve"/>
			<point x="132" y="75" type="line"/>
			<point x="197" y="24"/>
			<point x="264" y="0"/>
		</contour>
		<contour>
			<point x="-35" y="22" type="line"/>
			<point x="-16" y="10"/>
			<point x="29" y="0"/>
			<point x="57" y="0" type="curve" smooth="yes"/>
			<point x="127" y="0"/>
			<point x="182" y="32"/>
			<point x="250" y="112" type="curve" smooth="yes"/>
			<point x="490" y="365" type="line"/>
			<point x="530" y="377" type="line"/>
			<point x="724" y="537" type="line"/>
			<point x="654" y="621" type="line"/>
			<point x="507" y="499" type="line"/>
			<point x="472" y="478" type="line"/>
			<point x="193" y="192" type="line" smooth="yes"/>
			<point x="127" y="124"/>
			<point x="86" y="104"/>
			<point x="14" y="104" type="curve" smooth="yes"/>
			<point x="-35" y="104" type="line"/>
		</contour>
	</outline>
	<anchor name="top" x="374" y="714"/>
</glyph>
<glyph name="nya-rohg.init" format="2">
	<advance width="534"/>
	<outline>
		<contour>
			<point x="-35" y="22" type="line"/>
			<point x="-16" y="10"/>
			<point x="30" y="0"/>
			<point x="57" y="0" type="curve" smooth="yes"/>
			<point x="89" y="0" type="line" smooth="yes"/>
			<point x="253" y="0"/>
			<point x="347" y="102"/>
			<point x="347" y="280" type="curve" smooth="yes"/>
			<point x="347" y="714" type="line"/>
			<point x="221" y="714" type="line"/>
			<point x="221" y="283" type="line" smooth="yes"/>
			<point x="221" y="164"/>
			<point x="170" y="104"/>
			<point x="68" y="104" type="curve" smooth="yes"/>
			<point x="-35" y="104" type="line"/>
		</contour>
		<contour>
			<point x="416" y="339" type="line"/>
			<point x="524" y="339" type="line"/>
			<point x="524" y="413" type="line" smooth="yes"/>
			<point x="524" y="497"/>
			<point x="478" y="543"/>
			<point x="394" y="543" type="curve" smooth="yes"/>
			<point x="285" y="543" type="line"/>
			<point x="285" y="445" type="line"/>
			<point x="374" y="445" type="line" smooth="yes"/>
			<point x="401" y="445"/>
			<point x="416" y="430"/>
			<point x="416" y="403" type="curve" smooth="yes"/>
		</contour>
	</outline>
	<anchor name="top" x="284" y="714"/>
</glyph>
<glyph name="ovowel-rohg.init" format="2">
	<advance width="523"/>
	<outline>
		<contour>
			<point x="-35" y="22" type="line"/>
			<point x="-16" y="10"/>
			<point x="29" y="0"/>
			<point x="57" y="0" type="curve" smooth="yes"/>
			<point x="263" y="0" type="line" smooth="yes"/>
			<point x="404" y="0"/>
			<point x="478" y="54"/>
			<point x="478" y="157" type="curve" smooth="yes"/>
			<point x="478" y="237"/>
			<point x="427" y="284"/>
			<point x="330" y="294" type="curve"/>
			<point x="294" y="251" type="line"/>
			<point x="386" y="262"/>
			<point x="442" y="315"/>
			<point x="442" y="393" type="curve" smooth="yes"/>
			<point x="442" y="480"/>
			<point x="376" y="536"/>
			<point x="272" y="536" type="curve" smooth="yes"/>
			<point x="162" y="536"/>
			<point x="96" y="472"/>
			<point x="96" y="364" type="curve" smooth="yes"/>
			<point x="96" y="41" type="line"/>
			<point x="218" y="41" type="line"/>
			<point x="218" y="364" type="line" smooth="yes"/>
			<point x="218" y="412"/>
			<point x="234" y="434"/>
			<point x="269" y="434" type="curve" smooth="yes"/>
			<point x="302" y="434"/>
			<point x="320" y="415"/>
			<point x="320" y="377" type="curve" smooth="yes"/>
			<point x="320" y="346"/>
			<point x="297" y="321"/>
			<point x="262" y="315" type="curve"/>
			<point x="262" y="229" type="line"/>
			<point x="273" y="229" type="line" smooth="yes"/>
			<point x="328" y="229"/>
			<point x="356" y="209"/>
			<point x="356" y="167" type="curve" smooth="yes"/>
			<point x="356" y="123"/>
			<point x="330" y="104"/>
			<point x="273" y="104" type="curve" smooth="yes"/>
			<point x="-35" y="104" type="line"/>
		</contour>
	</outline>
	<anchor name="top" x="268" y="714"/>
</glyph>
<glyph name="pa-rohg.init" format="2">
	<advance width="439"/>
	<outline>
		<contour>
			<point x="-35" y="22" type="line"/>
			<point x="-16" y="10"/>
			<point x="29" y="0"/>
			<point x="57" y="0" type="curve" smooth="yes"/>
			<point x="136" y="0" type="line" smooth="yes"/>
			<point x="302" y="0"/>
			<point x="394" y="100"/>
			<point x="394" y="280" type="curve" smooth="yes"/>
			<point x="394" y="360" type="line" smooth="yes"/>
			<point x="394" y="473"/>
			<point x="322" y="548"/>
			<point x="214" y="548" type="curve" smooth="yes"/>
			<point x="118" y="548"/>
			<point x="47" y="484"/>
			<point x="47" y="396" type="curve" smooth="yes"/>
			<point x="47" y="302"/>
			<point x="124" y="238"/>
			<point x="248" y="238" type="curve" smooth="yes"/>
			<point x="305" y="238" type="line"/>
			<point x="305" y="332" type="line"/>
			<point x="255" y="332" type="line" smooth="yes"/>
			<point x="193" y="332"/>
			<point x="158" y="356"/>
			<point x="158" y="397" type="curve" smooth="yes"/>
			<point x="158" y="428"/>
			<point x="182" y="454"/>
			<point x="212" y="454" type="curve" smooth="yes"/>
			<point x="251" y="454"/>
			<point x="274" y="419"/>
			<point x="274" y="360" type="curve" smooth="yes"/>
			<point x="274" y="283" type="line" smooth="yes"/>
			<point x="274" y="166"/>
			<point x="219" y="104"/>
			<point x="115" y="104" type="curve" smooth="yes"/>
			<point x="-35" y="104" type="line"/>
		</contour>
	</outline>
	<anchor name="top" x="220" y="714"/>
</glyph>
<glyph name="ra-rohg.init" format="2">
	<advance width="573"/>
	<outline>
		<contour>
			<point x="-35" y="22" type="line"/>
			<point x="-16" y="10"/>
			<point x="29" y="0"/>
			<point x="57" y="0" type="curve" smooth="yes"/>
			<point x="105" y="0" type="line" smooth="yes"/>
			<point x="269" y="0"/>
			<point x="363" y="102"/>
			<point x="363" y="280" type="curve" smooth="yes"/>
			<point x="363" y="447" type="line"/>
			<point x="354" y="457" type="line"/>
			<point x="354" y="567" type="line" smooth="yes"/>
			<point x="354" y="605"/>
			<point x="374" y="629"/>
			<point x="405" y="629" type="curve" smooth="yes"/>
			<point x="434" y="629"/>
			<point x="451" y="607"/>
			<point x="451" y="577" type="curve" smooth="yes"/>
			<point x="451" y="541"/>
			<point x="426" y="519"/>
			<point x="384" y="519" type="curve" smooth="yes"/>
			<point x="296" y="519" type="line"/>
			<point x="286" y="528" type="line"/>
			<point x="130" y="528" type="line"/>
			<point x="130" y="426" type="line"/>
			<point x="386" y="426" type="line" smooth="yes"/>
			<point x="491" y="426"/>
			<point x="563" y="487"/>
			<point x="563" y="577" type="curve" smooth="yes"/>
			<point x="563" y="663"/>
			<point x="498" y="724"/>
			<point x="405" y="724" type="curve" smooth="yes"/>
			<point x="307" y="724"/>
			<point x="237" y="656"/>
			<point x="237" y="560" type="curve" smooth="yes"/>
			<point x="237" y="283" type="line" smooth="yes"/>
			<point x="237" y="164"/>
			<point x="186" y="104"/>
			<point x="84" y="104" type="curve" smooth="yes"/>
			<point x="-35" y="104" type="line"/>
		</contour>
	</outline>
	<anchor name="top" x="368" y="714"/>
</glyph>
<glyph name="rra-rohg.init" format="2">
	<advance width="789"/>
	<outline>
		<contour>
			<point x="151" y="51" type="line"/>
			<point x="277" y="51" type="line"/>
			<point x="277" y="451" type="line"/>
			<point x="268" y="461" type="line"/>
			<point x="268" y="567" type="line" smooth="yes"/>
			<point x="268" y="605"/>
			<point x="288" y="629"/>
			<point x="319" y="629" type="curve" smooth="yes"/>
			<point x="348" y="629"/>
			<point x="365" y="607"/>
			<point x="365" y="577" type="curve" smooth="yes"/>
			<point x="365" y="541"/>
			<point x="340" y="519"/>
			<point x="298" y="519" type="curve" smooth="yes"/>
			<point x="210" y="519" type="line"/>
			<point x="200" y="528" type="line"/>
			<point x="44" y="528" type="line"/>
			<point x="44" y="426" type="line"/>
			<point x="300" y="426" type="line" smooth="yes"/>
			<point x="405" y="426"/>
			<point x="477" y="487"/>
			<point x="477" y="577" type="curve" smooth="yes"/>
			<point x="477" y="663"/>
			<point x="412" y="724"/>
			<point x="319" y="724" type="curve" smooth="yes"/>
			<point x="221" y="724"/>
			<point x="151" y="656"/>
			<point x="151" y="560" type="curve" smooth="yes"/>
		</contour>
		<contour>
			<point x="-35" y="22" type="line"/>
			<point x="-16" y="10"/>
			<point x="29" y="0"/>
			<point x="57" y="0" type="curve" smooth="yes"/>
			<point x="449" y="0" type="line" smooth="yes"/>
			<point x="640" y="0"/>
			<point x="744" y="73"/>
			<point x="744" y="206" type="curve" smooth="yes"/>
			<point x="744" y="318"/>
			<point x="666" y="392"/>
			<point x="549" y="392" type="curve" smooth="yes"/>
			<point x="413" y="392"/>
			<point x="299" y="281"/>
			<point x="237" y="170" type="curve"/>
			<point x="237" y="57" type="line"/>
			<point x="313" y="193"/>
			<point x="432" y="288"/>
			<point x="528" y="288" type="curve" smooth="yes"/>
			<point x="585" y="288"/>
			<point x="618" y="258"/>
			<point x="618" y="206" type="curve" smooth="yes"/>
			<point x="618" y="137"/>
			<point x="558" y="104"/>
			<point x="433" y="104" type="curve" smooth="yes"/>
			<point x="-35" y="104" type="line"/>
		</contour>
	</outline>
	<anchor name="top" x="448" y="714"/>
</glyph>
<glyph name="sa-rohg.init" format="2">
	<advance width="519"/>
	<outline>
		<contour>
			<point x="-35" y="22" type="line"/>
			<point x="-16" y="10"/>
			<point x="29" y="0"/>
			<point x="57" y="0" type="curve" smooth="yes"/>
			<point x="216" y="0" type="line" smooth="yes"/>
			<point x="385" y="0"/>
			<point x="474" y="100"/>
			<point x="474" y="289" type="curve" smooth="yes"/>
			<point x="474" y="450"/>
			<point x="390" y="548"/>
			<point x="253" y="548" type="curve" smooth="yes"/>
			<point x="141" y="548"/>
			<point x="57" y="476"/>
			<point x="57" y="380" type="curve" smooth="yes"/>
			<point x="57" y="293"/>
			<point x="126" y="230"/>
			<point x="223" y="230" type="curve" smooth="yes"/>
			<point x="254" y="230" type="line"/>
			<point x="254" y="325" type="line"/>
			<point x="230" y="325" type="line" smooth="yes"/>
			<point x="193" y="325"/>
			<point x="170" y="348"/>
			<point x="170" y="383" type="curve" smooth="yes"/>
			<point x="170" y="421"/>
			<point x="200" y="448"/>
			<point x="245" y="448" type="curve" smooth="yes"/>
			<point x="311" y="448"/>
			<point x="348" y="391"/>
			<point x="348" y="290" type="curve" smooth="yes"/>
			<point x="348" y="163"/>
			<point x="300" y="104"/>
			<point x="195" y="104" type="curve" smooth="yes"/>
			<point x="-35" y="104" type="line"/>
		</contour>
	</outline>
	<anchor name="top" x="249" y="714"/>
</glyph>
<glyph name="sha-rohg.init" format="2">
	<advance width="752"/>
	<outline>
		<contour>
			<point x="-35" y="22" type="line"/>
			<point x="-16" y="10"/>
			<point x="29" y="0"/>
			<point x="57" y="0" type="curve" smooth="yes"/>
			<point x="93" y="0" type="line" smooth="yes"/>
			<point x="177" y="0"/>
			<point x="243" y="41"/>
			<point x="256" y="97" type="curve"/>
			<point x="238" y="98" type="line"/>
			<point x="261" y="34"/>
			<point x="330" y="0"/>
			<point x="440" y="0" type="curve" smooth="yes"/>
			<point x="618" y="0"/>
			<point x="707" y="96"/>
			<point x="707" y="289" type="curve" smooth="yes"/>
			<point x="707" y="450"/>
			<point x="623" y="548"/>
			<point x="485" y="548" type="curve" smooth="yes"/>
			<point x="374" y="548"/>
			<point x="290" y="476"/>
			<point x="290" y="380" type="curve" smooth="yes"/>
			<point x="290" y="293"/>
			<point x="359" y="230"/>
			<point x="455" y="230" type="curve" smooth="yes"/>
			<point x="486" y="230" type="line"/>
			<point x="486" y="325" type="line"/>
			<point x="463" y="325" type="line" smooth="yes"/>
			<point x="426" y="325"/>
			<point x="403" y="348"/>
			<point x="403" y="383" type="curve" smooth="yes"/>
			<point x="403" y="421"/>
			<point x="433" y="448"/>
			<point x="478" y="448" type="curve" smooth="yes"/>
			<point x="544" y="448"/>
			<point x="581" y="391"/>
			<point x="581" y="290" type="curve" smooth="yes"/>
			<point x="581" y="164"/>
			<point x="534" y="104"/>
			<point x="433" y="104" type="curve" smooth="yes"/>
			<point x="345" y="104"/>
			<point x="306" y="136"/>
			<point x="306" y="208" type="curve" smooth="yes"/>
			<point x="306" y="221" type="line"/>
			<point x="180" y="221" type="line"/>
			<point x="180" y="208" type="line" smooth="yes"/>
			<point x="180" y="139"/>
			<point x="142" y="104"/>
			<point x="69" y="104" type="curve" smooth="yes"/>
			<point x="-35" y="104" type="line"/>
		</contour>
	</outline>
	<anchor name="top" x="472" y="714"/>
</glyph>
<glyph name="ta-rohg.init" format="2">
	<advance width="476"/>
	<outline>
		<contour>
			<point x="-35" y="22" type="line"/>
			<point x="-16" y="10"/>
			<point x="29" y="0"/>
			<point x="57" y="0" type="curve" smooth="yes"/>
			<point x="138" y="0" type="line" smooth="yes"/>
			<point x="302" y="0"/>
			<point x="396" y="102"/>
			<point x="396" y="280" type="curve" smooth="yes"/>
			<point x="396" y="546" type="line" smooth="yes"/>
			<point x="396" y="662"/>
			<point x="337" y="724"/>
			<point x="226" y="724" type="curve" smooth="yes"/>
			<point x="115" y="724"/>
			<point x="60" y="663"/>
			<point x="60" y="542" type="curve" smooth="yes"/>
			<point x="60" y="503" type="line"/>
			<point x="180" y="503" type="line"/>
			<point x="180" y="541" type="line" smooth="yes"/>
			<point x="180" y="602"/>
			<point x="193" y="622"/>
			<point x="223" y="622" type="curve" smooth="yes"/>
			<point x="255" y="622"/>
			<point x="270" y="598"/>
			<point x="270" y="546" type="curve" smooth="yes"/>
			<point x="270" y="283" type="line" smooth="yes"/>
			<point x="270" y="164"/>
			<point x="219" y="104"/>
			<point x="117" y="104" type="curve" smooth="yes"/>
			<point x="-35" y="104" type="line"/>
		</contour>
	</outline>
	<anchor name="top" x="230" y="714"/>
</glyph>
<glyph name="tana-rohg.ss01" format="2">
	<outline>
		<contour>
			<point x="-145" y="855" type="line"/>
			<point x="-115" y="902"/>
			<point x="-91" y="915"/>
			<point x="-38" y="915" type="curve" smooth="yes"/>
			<point x="-17" y="915"/>
			<point x="4" y="914"/>
			<point x="76" y="905" type="curve" smooth="yes"/>
			<point x="136" y="897"/>
			<point x="181" y="893"/>
			<point x="226" y="893" type="curve" smooth="yes"/>
			<point x="317" y="893"/>
			<point x="361" y="926"/>
			<point x="396" y="1022" type="curve"/>
			<point x="317" y="1052" type="line"/>
			<point x="290" y="992"/>
			<point x="273" y="979"/>
			<point x="220" y="979" type="curve" smooth="yes"/>
			<point x="188" y="979"/>
			<point x="155" y="982"/>
			<point x="91" y="990" type="curve" smooth="yes"/>
			<point x="32" y="998"/>
			<point x="-11" y="1001"/>
			<point x="-44" y="1001" type="curve" smooth="yes"/>
			<point x="-126" y="1001"/>
			<point x="-173" y="974"/>
			<point x="-216" y="902" type="curve"/>
		</contour>
	</outline>
	<anchor name="_top" x="0" y="714"/>
	<anchor name="top" x="0" y="1003"/>
</glyph>
<glyph name="tta-rohg.init" format="2">
	<advance width="513"/>
	<outline>
		<contour>
			<point x="-35" y="22" type="line"/>
			<point x="-15" y="10"/>
			<point x="30" y="0"/>
			<point x="57" y="0" type="curve" smooth="yes"/>
			<point x="76" y="0" type="line" smooth="yes"/>
			<point x="240" y="0"/>
			<point x="334" y="102"/>
			<point x="334" y="280" type="curve" smooth="yes"/>
			<point x="334" y="568" type="line" smooth="yes"/>
			<point x="334" y="595"/>
			<point x="349" y="610"/>
			<point x="376" y="610" type="curve" smooth="yes"/>
			<point x="503" y="610" type="line"/>
			<point x="503" y="714" type="line"/>
			<point x="337" y="714" type="line" smooth="yes"/>
			<point x="254" y="714"/>
			<point x="208" y="669"/>
			<point x="208" y="585" type="curve" smooth="yes"/>
			<point x="208" y="283" type="line" smooth="yes"/>
			<point x="208" y="164"/>
			<point x="157" y="104"/>
			<point x="55" y="104" type="curve" smooth="yes"/>
			<point x="-35" y="104" type="line"/>
		</contour>
	</outline>
	<anchor name="top" x="356" y="714"/>
</glyph>
<glyph name="uvowel-rohg.init" format="2">
	<advance width="676"/>
	<outline>
		<contour>
			<point x="-35" y="22" type="line"/>
			<point x="-18" y="11"/>
			<point x="30" y="0"/>
			<point x="57" y="0" type="curve" smooth="yes"/>
			<point x="138" y="0"/>
			<point x="199" y="41"/>
			<point x="221" y="99" type="curve"/>
			<point x="203" y="98" type="line"/>
			<point x="237" y="33"/>
			<point x="296" y="0"/>
			<point x="375" y="0" type="curve" smooth="yes"/>
			<point x="387" y="0" type="line" smooth="yes"/>
			<point x="530" y="0"/>
			<point x="596" y="83"/>
			<point x="596" y="264" type="curve" smooth="yes"/>
			<point x="596" y="335" type="line"/>
			<point x="470" y="335" type="line"/>
			<point x="470" y="267" type="line" smooth="yes"/>
			<point x="470" y="150"/>
			<point x="441" y="104"/>
			<point x="370" y="104" type="curve" smooth="yes"/>
			<point x="312" y="104"/>
			<point x="276" y="142"/>
			<point x="276" y="202" type="curve" smooth="yes"/>
			<point x="276" y="335" type="line"/>
			<point x="150" y="335" type="line"/>
			<point x="150" y="267" type="line" smooth="yes"/>
			<point x="150" y="155"/>
			<point x="114" y="104"/>
			<point x="34" y="104" type="curve" smooth="yes"/>
			<point x="-35" y="104" type="line"/>
		</contour>
	</outline>
	<anchor name="top" x="372" y="714"/>
</glyph>
<glyph name="wa-rohg.init" format="2">
	<advance width="494"/>
	<outline>
		<contour>
			<point x="-35" y="22" type="line"/>
			<point x="-16" y="10"/>
			<point x="29" y="0"/>
			<point x="57" y="0" type="curve" smooth="yes"/>
			<point x="243" y="0" type="line" smooth="yes"/>
			<point x="373" y="0"/>
			<point x="449" y="72"/>
			<point x="449" y="196" type="curve" smooth="yes"/>
			<point x="449" y="309"/>
			<point x="374" y="379"/>
			<point x="252" y="379" type="curve" smooth="yes"/>
			<point x="216" y="379" type="line"/>
			<point x="253" y="329" type="line"/>
			<point x="346" y="439" type="line" smooth="yes"/>
			<point x="387" y="488"/>
			<point x="407" y="531"/>
			<point x="407" y="578" type="curve" smooth="yes"/>
			<point x="407" y="665"/>
			<point x="343" y="724"/>
			<point x="255" y="724" type="curve" smooth="yes"/>
			<point x="166" y="724"/>
			<point x="100" y="662"/>
			<point x="100" y="580" type="curve" smooth="yes"/>
			<point x="100" y="505"/>
			<point x="155" y="453"/>
			<point x="234" y="445" type="curve"/>
			<point x="230" y="462" type="line"/>
			<point x="121" y="332" type="line"/>
			<point x="158" y="285" type="line"/>
			<point x="213" y="285" type="line" smooth="yes"/>
			<point x="287" y="285"/>
			<point x="323" y="256"/>
			<point x="323" y="196" type="curve" smooth="yes"/>
			<point x="323" y="137"/>
			<point x="287" y="104"/>
			<point x="221" y="104" type="curve" smooth="yes"/>
			<point x="-35" y="104" type="line"/>
		</contour>
		<contour>
			<point x="251" y="530" type="curve" smooth="yes"/>
			<point x="223" y="530"/>
			<point x="201" y="552"/>
			<point x="201" y="580" type="curve" smooth="yes"/>
			<point x="201" y="608"/>
			<point x="224" y="630"/>
			<point x="252" y="630" type="curve" smooth="yes"/>
			<point x="279" y="630"/>
			<point x="301" y="608"/>
			<point x="301" y="580" type="curve" smooth="yes"/>
			<point x="301" y="552"/>
			<point x="279" y="530"/>
		</contour>
	</outline>
	<anchor name="top" x="246" y="714"/>
</glyph>
<glyph name="xx.connectionlong-rohg" format="2">
	<advance width="231"/>
	<outline>
		<contour>
			<point x="288" y="0" type="line"/>
			<point x="288" y="104" type="line"/>
			<point x="156" y="104" type="line" smooth="yes"/>
			<point x="82" y="104"/>
			<point x="30" y="145"/>
			<point x="30" y="206" type="curve"/>
			<point x="-36" y="206" type="line"/>
			<point x="-36" y="174" type="line" smooth="yes"/>
			<point x="-36" y="71"/>
			<point x="42" y="0"/>
			<point x="156" y="0" type="curve" smooth="yes"/>
		</contour>
	</outline>
</glyph>
<glyph name="xx.evowelmark-rohg" format="2">
	<advance width="277"/>
	<outline>
		<contour>
			<point x="267" y="-207" type="curve"/>
			<point x="267" y="-132" type="line"/>
			<point x="191" y="-132" type="line" smooth="yes"/>
			<point x="145" y="-132"/>
			<point x="123" y="-116"/>
			<point x="123" y="-83" type="curve" smooth="yes"/>
			<point x="123" y="-53" type="line"/>
			<point x="10" y="-53" type="line"/>
			<point x="10" y="-83" type="line" smooth="yes"/>
			<point x="10" y="-176"/>
			<point x="62" y="-221"/>
			<point x="167" y="-221" type="curve" smooth="yes"/>
			<point x="175" y="-221" type="line" smooth="yes"/>
			<point x="210" y="-221"/>
			<point x="240" y="-217"/>
		</contour>
	</outline>
</glyph>
<glyph name="xx.ivowelmark-rohg" format="2">
	<advance width="277"/>
	<outline>
		<contour>
			<point x="10" y="-207" type="line"/>
			<point x="36" y="-217"/>
			<point x="67" y="-221"/>
			<point x="101" y="-221" type="curve" smooth="yes"/>
			<point x="109" y="-221" type="line" smooth="yes"/>
			<point x="215" y="-221"/>
			<point x="267" y="-176"/>
			<point x="267" y="-83" type="curve" smooth="yes"/>
			<point x="267" y="-53" type="line"/>
			<point x="154" y="-53" type="line"/>
			<point x="154" y="-83" type="line" smooth="yes"/>
			<point x="154" y="-116"/>
			<point x="132" y="-132"/>
			<point x="85" y="-132" type="curve" smooth="yes"/>
			<point x="10" y="-132" type="line"/>
		</contour>
	</outline>
</glyph>
<glyph name="xx.singledot-rohg" format="2">
	<advance width="146"/>
	<outline>
		<contour>
			<point x="73" y="425" type="curve" smooth="yes"/>
			<point x="112" y="425"/>
			<point x="136" y="450"/>
			<point x="136" y="492" type="curve" smooth="yes"/>
			<point x="136" y="535"/>
			<point x="112" y="560"/>
			<point x="73" y="560" type="curve" smooth="yes"/>
			<point x="33" y="560"/>
			<point x="10" y="535"/>
			<point x="10" y="492" type="curve" smooth="yes"/>
			<point x="10" y="450"/>
			<point x="33" y="425"/>
		</contour>
	</outline>
</glyph>
<glyph name="xx.tripledot-rohg" format="2">
	<advance width="316"/>
	<outline>
		<contour>
			<point x="70" y="603" type="curve" smooth="yes"/>
			<point x="108" y="603"/>
			<point x="130" y="627"/>
			<point x="130" y="667" type="curve" smooth="yes"/>
			<point x="130" y="707"/>
			<point x="108" y="731"/>
			<point x="70" y="731" type="curve" smooth="yes"/>
			<point x="32" y="731"/>
			<point x="10" y="707"/>
			<point x="10" y="667" type="curve" smooth="yes"/>
			<point x="10" y="627"/>
			<point x="32" y="603"/>
		</contour>
		<contour>
			<point x="246" y="603" type="curve" smooth="yes"/>
			<point x="284" y="603"/>
			<point x="306" y="627"/>
			<point x="306" y="667" type="curve" smooth="yes"/>
			<point x="306" y="707"/>
			<point x="284" y="731"/>
			<point x="246" y="731" type="curve" smooth="yes"/>
			<point x="209" y="731"/>
			<point x="186" y="707"/>
			<point x="186" y="667" type="curve" smooth="yes"/>
			<point x="186" y="627"/>
			<point x="209" y="603"/>
		</contour>
		<contour>
			<point x="158" y="747" type="curve" smooth="yes"/>
			<point x="195" y="747"/>
			<point x="217" y="771"/>
			<point x="217" y="810" type="curve" smooth="yes"/>
			<point x="217" y="849"/>
			<point x="195" y="873"/>
			<point x="158" y="873" type="curve" smooth="yes"/>
			<point x="121" y="873"/>
			<point x="99" y="849"/>
			<point x="99" y="810" type="curve" smooth="yes"/>
			<point x="99" y="771"/>
			<point x="121" y="747"/>
		</contour>
	</outline>
</glyph>
<glyph name="ya-rohg.init" format="2">
	<advance width="513"/>
	<outline>
		<contour>
			<point x="-35" y="22" type="line"/>
			<point x="-16" y="10"/>
			<point x="29" y="0"/>
			<point x="57" y="0" type="curve" smooth="yes"/>
			<point x="138" y="0" type="line" smooth="yes"/>
			<point x="302" y="0"/>
			<point x="396" y="102"/>
			<point x="396" y="280" type="curve" smooth="yes"/>
			<point x="396" y="550" type="line" smooth="yes"/>
			<point x="396" y="656"/>
			<point x="331" y="724"/>
			<point x="229" y="724" type="curve" smooth="yes"/>
			<point x="133" y="724"/>
			<point x="66" y="662"/>
			<point x="66" y="575" type="curve" smooth="yes"/>
			<point x="66" y="486"/>
			<point x="135" y="426"/>
			<point x="249" y="426" type="curve" smooth="yes"/>
			<point x="503" y="426" type="line"/>
			<point x="503" y="529" type="line"/>
			<point x="337" y="529" type="line"/>
			<point x="326" y="520" type="line"/>
			<point x="250" y="520" type="line" smooth="yes"/>
			<point x="204" y="520"/>
			<point x="176" y="542"/>
			<point x="176" y="577" type="curve" smooth="yes"/>
			<point x="176" y="607"/>
			<point x="197" y="629"/>
			<point x="226" y="629" type="curve" smooth="yes"/>
			<point x="258" y="629"/>
			<point x="279" y="601"/>
			<point x="279" y="558" type="curve" smooth="yes"/>
			<point x="279" y="458" type="line"/>
			<point x="270" y="448" type="line"/>
			<point x="270" y="283" type="line" smooth="yes"/>
			<point x="270" y="164"/>
			<point x="219" y="104"/>
			<point x="117" y="104" type="curve" smooth="yes"/>
			<point x="-35" y="104" type="line"/>
		</contour>
	</outline>
	<anchor name="top" x="222" y="714"/>
</glyph>
<glyph name="za-rohg.init" format="2">
	<advance width="665"/>
	<outline>
		<contour>
			<point x="-35" y="22" type="line"/>
			<point x="-16" y="10"/>
			<point x="29" y="0"/>
			<point x="56" y="0" type="curve" smooth="yes"/>
			<point x="141" y="0" type="line" smooth="yes"/>
			<point x="342" y="0"/>
			<point x="451" y="98"/>
			<point x="451" y="280" type="curve" smooth="yes"/>
			<point x="451" y="556" type="line" smooth="yes"/>
			<point x="451" y="660"/>
			<point x="389" y="724"/>
			<point x="290" y="724" type="curve" smooth="yes"/>
			<point x="194" y="724"/>
			<point x="130" y="659"/>
			<point x="130" y="559" type="curve" smooth="yes"/>
			<point x="130" y="245" type="line" smooth="yes"/>
			<point x="130" y="99"/>
			<point x="238" y="0"/>
			<point x="397" y="0" type="curve" smooth="yes"/>
			<point x="442" y="0" type="line" smooth="yes"/>
			<point x="579" y="0"/>
			<point x="655" y="78"/>
			<point x="655" y="221" type="curve" smooth="yes"/>
			<point x="655" y="246" type="line"/>
			<point x="529" y="246" type="line"/>
			<point x="529" y="224" type="line" smooth="yes"/>
			<point x="529" y="144"/>
			<point x="500" y="104"/>
			<point x="442" y="104" type="curve" smooth="yes"/>
			<point x="393" y="104" type="line" smooth="yes"/>
			<point x="303" y="104"/>
			<point x="249" y="156"/>
			<point x="249" y="245" type="curve" smooth="yes"/>
			<point x="249" y="559" type="line" smooth="yes"/>
			<point x="249" y="601"/>
			<point x="261" y="620"/>
			<point x="287" y="620" type="curve" smooth="yes"/>
			<point x="313" y="620"/>
			<point x="325" y="601"/>
			<point x="325" y="559" type="curve" smooth="yes"/>
			<point x="325" y="283" type="line" smooth="yes"/>
			<point x="325" y="154"/>
			<point x="278" y="104"/>
			<point x="153" y="104" type="curve" smooth="yes"/>
			<point x="-35" y="104" type="line"/>
		</contour>
	</outline>
	<anchor name="top" x="291" y="714"/>
</glyph>
